<svg viewBox="0 -960 960 960"><path d="M399.175-357Q382-357 369.5-369.5T357-399.175v-161.65Q357-578 369.5-590.5t29.675-12.5h161.65Q578-603 590.5-590.5t12.5 29.675v161.65Q603-382 590.5-369.5T560.825-357h-161.65ZM402-120q-17 0-29.5-12.5T360-161.702V-201h-75q-34.65 0-59.325-24.675Q201-250.35 201-285v-75h-39.298Q145-360 132.5-372.5T120-402q0-17 12.5-29.5t29.202-12.5H201v-72h-39.298Q145-516 132.5-528.5T120-558q0-17 12.5-29.5t29.202-12.5H201v-75q0-34.65 24.675-59.325Q250.35-759 285-759h75v-39.298Q360-815 372.5-827.5T402-840q17 0 29.5 12.5t12.5 29.202V-759h72v-39.298Q516-815 528.5-827.5T558-840q17 0 29.5 12.5t12.5 29.202V-759h75q34.65 0 59.325 24.675Q759-709.65 759-675v75h39.298Q815-600 827.5-587.5T840-558q0 17-12.5 29.5T798.298-516H759v72h39.298Q815-444 827.5-431.5T840-402q0 17-12.5 29.5T798.298-360H759v75q0 34.65-24.675 59.325Q709.65-201 675-201h-75v39.298Q600-145 587.5-132.5T558-120q-17 0-29.5-12.5T516-161.702V-201h-72v39.298Q444-145 431.5-132.5T402-120ZM285-285h390v-390H285v390Z"/></svg>